<?xml version="1.0" encoding="UTF-8"?>
<svg width="80px" height="80px" viewBox="0 0 80 80" version="1.1" xmlns="http://www.w3.org/2000/svg" xmlns:xlink="http://www.w3.org/1999/xlink">
    <!-- Generator: Sketch 51.2 (57519) - http://www.bohemiancoding.com/sketch -->
    <title>Trial-Icon-Furniture</title>
    <desc>Created with Sketch.</desc>
    <defs></defs>
    <g id="Trial-Page" stroke="none" stroke-width="1" fill="none" fill-rule="evenodd">
        <g id="1360_Trial_v6" transform="translate(-224.000000, -1794.000000)">
            <g id="15)-Multi-column---Text-+-Icon-Captions" transform="translate(224.000000, 1673.000000)">
                <g id="Trial-Icon-Furniture" transform="translate(0.000000, 121.000000)">
                    <polygon id="Fill-1" fill="#FFFFFF" points="0 80 80 80 80 0.0025 0 0.0025"></polygon>
                    <polygon id="Fill-2" fill="#D7ECF7" points="9.02625 40.16775 11.53625 32.52025 31.50125 41.71025 70.63375 41.86275 69.76625 49.51025 29.84375 49.92025"></polygon>
                    <g id="Group-17" transform="translate(7.500000, 24.500000)" fill="#212B64">
                        <path d="M60.999,24.5045 L61.0265,24.5045 C61.2715,24.5045 61.514,24.4345 61.709,24.2845 C61.954,24.057 62.134,23.6795 62.154,23.267 L62.519,19.452 C62.644,18.622 62.4565,17.847 61.9915,17.212 L57.019,9.7945 C56.414,9.0395 55.4415,8.5745 54.399,8.5745 L54.3965,8.5745 L26.889,8.5745 C25.5715,8.507 24.3315,8.2295 23.159,7.7445 L12.4565,2.132 C11.714,1.6995 10.814,1.807 10.2265,2.377 L4.464,8.9195 L2.559,13.807 C2.4215,14.1245 2.4065,14.4495 2.5065,14.747 C2.5915,14.957 2.794,15.162 3.0465,15.262 L20.4565,23.7545 C21.5015,24.2245 22.639,24.482 23.8165,24.5045 L60.999,24.5045 Z M61.0565,26.3345 L60.9865,26.3345 L23.7965,26.3345 C22.354,26.3045 20.9765,25.9945 19.679,25.412 L2.3065,16.9345 C1.6515,16.6745 1.0765,16.097 0.789,15.3745 C0.529,14.597 0.5615,13.807 0.869,13.1045 L3.0815,7.7195 L8.904,1.1145 C10.1265,-0.078 11.9315,-0.298 13.344,0.5345 L23.9315,6.0895 C24.8365,6.457 25.874,6.692 26.9365,6.7445 L54.3965,6.7445 L54.4015,6.7445 C55.999,6.7445 57.4915,7.462 58.494,8.7145 L63.4915,16.1645 C64.2215,17.1595 64.5265,18.4195 64.334,19.677 L63.979,23.402 C63.9365,24.2595 63.5465,25.0845 62.8815,25.687 C62.3215,26.122 61.694,26.3345 61.0565,26.3345 Z" id="Fill-3"></path>
                        <path d="M58.24375,18.27875 L25.38875,18.27875 C24.31125,18.27875 23.22875,18.03375 22.25375,17.57125 L7.90875,10.75625 C7.45125,10.53875 7.25625,9.99375 7.47375,9.53625 C7.68875,9.08125 8.23125,8.88625 8.69375,9.10375 L23.03875,15.91875 C23.76875,16.26375 24.58125,16.44875 25.38875,16.44875 L58.24375,16.44875 C58.74875,16.44875 59.15875,16.85875 59.15875,17.36375 C59.15875,17.86875 58.74875,18.27875 58.24375,18.27875" id="Fill-5"></path>
                        <polygon id="Fill-7" points="9.6025 16.74925 11.0425 13.83175 13.365 14.90425 11.925 17.82175"></polygon>
                        <path d="M6.569,24.225 C6.439,24.225 6.309,24.1975 6.184,24.14 C5.7265,23.9275 5.5265,23.3825 5.739,22.925 L10.689,12.2425 C10.904,11.78 11.4465,11.5875 11.904,11.7975 C12.364,12.01 12.5615,12.555 12.3515,13.0125 L7.399,23.695 C7.244,24.0275 6.914,24.225 6.569,24.225" id="Fill-9"></path>
                        <path d="M52.443,30.9705 C51.938,30.9705 51.528,30.5605 51.528,30.0555 L51.528,25.4205 C51.528,24.9155 51.938,24.5055 52.443,24.5055 C52.948,24.5055 53.358,24.9155 53.358,25.4205 L53.358,30.0555 C53.358,30.5605 52.948,30.9705 52.443,30.9705" id="Fill-11"></path>
                        <path d="M7.044,30.9705 C6.539,30.9705 6.129,30.5605 6.129,30.0555 L6.129,22.923 C6.129,22.418 6.539,22.008 7.044,22.008 C7.549,22.008 7.959,22.418 7.959,22.923 L7.959,30.0555 C7.959,30.5605 7.549,30.9705 7.044,30.9705" id="Fill-13"></path>
                        <path d="M17.45525,24.225 L4.63275,24.225 C4.12525,24.225 3.71525,23.815 3.71525,23.31 C3.71525,22.805 4.12525,22.395 4.63275,22.395 L17.45525,22.395 C17.96025,22.395 18.37025,22.805 18.37025,23.31 C18.37025,23.815 17.96025,24.225 17.45525,24.225" id="Fill-15"></path>
                    </g>
                </g>
            </g>
        </g>
    </g>
</svg>