<?xml version="1.0" encoding="UTF-8"?>
<svg width="80px" height="80px" viewBox="0 0 80 80" version="1.1" xmlns="http://www.w3.org/2000/svg" xmlns:xlink="http://www.w3.org/1999/xlink">
    <!-- Generator: Sketch 51.2 (57519) - http://www.bohemiancoding.com/sketch -->
    <title>Trial-Icon-DogBed</title>
    <desc>Created with Sketch.</desc>
    <defs></defs>
    <g id="Trial-Page" stroke="none" stroke-width="1" fill="none" fill-rule="evenodd">
        <g id="1360_Trial_v6" transform="translate(-640.000000, -1794.000000)">
            <g id="15)-Multi-column---Text-+-Icon-Captions" transform="translate(224.000000, 1673.000000)">
                <g id="Trial-Icon-DogBed" transform="translate(416.000000, 121.000000)">
                    <polygon id="Fill-1" fill="#FFFFFF" points="0 80 79.9975 80 79.9975 0.0025 0 0.0025"></polygon>
                    <g id="Group-12" transform="translate(12.500000, 22.500000)">
                        <path d="M43.69,15.30075 C43.1175,15.70825 14.545,16.20075 12.9125,15.30075 C11.5525,14.55075 13.8875,9.90075 15.235,9.44575 C17.62,8.63825 39.885,8.67075 41.7875,9.44575 C42.9025,9.89825 44.75,14.54825 43.69,15.30075" id="Fill-2" fill="#D7ECF7"></path>
                        <path d="M28.14925,3.1365 C19.06925,3.1365 9.83925,3.6765 8.34175,4.7465 C7.23675,5.5315 3.67425,13.789 3.04175,19.0215 C2.80175,20.984 3.15425,21.4215 3.17175,21.439 C5.87425,23.539 48.95175,22.704 53.54425,21.349 C54.14175,19.084 48.77425,6.244 46.97175,4.6965 C45.75925,3.654 37.02675,3.1365 28.14925,3.1365 M21.84175,24.504 C12.10675,24.504 3.03425,24.089 1.78175,22.634 C1.16925,21.919 0.99175,20.7015 1.22175,18.8015 C1.83675,13.7465 5.40175,4.594 7.27675,3.254 C11.02925,0.579 45.03675,0.619 48.16425,3.3065 C49.82925,4.7365 56.97425,19.574 54.99425,22.544 C54.68925,23.004 54.44925,23.3665 46.72925,23.8365 C43.87425,24.009 32.46675,24.504 21.84175,24.504" id="Fill-4" fill="#212B64"></path>
                        <path d="M28.17975,16.80725 C21.89225,16.80725 15.62975,16.42475 12.61475,15.65975 C12.12475,15.53475 11.82725,15.03725 11.95225,14.54725 C12.07725,14.05475 12.58725,13.76975 13.06475,13.88475 C18.78225,15.33725 37.52475,15.33225 43.45225,13.88225 C43.94725,13.75725 44.43725,14.06225 44.55725,14.55475 C44.67975,15.04475 44.37725,15.53975 43.88725,15.65975 C40.76725,16.42475 34.45975,16.80725 28.17975,16.80725" id="Fill-6" fill="#212B64"></path>
                        <path d="M27.79025,33.759 C18.71525,33.759 9.79775,33.0115 3.52025,31.519 L3.18775,31.4365 L2.98775,31.1565 C2.35775,30.2715 1.12525,25.839 1.12525,20.8765 L2.95775,20.8765 C2.95775,25.1415 3.92525,28.769 4.35275,29.8315 C16.44025,32.589 38.89525,32.5865 52.15025,29.824 C52.66525,28.5915 53.55025,25.1215 53.55025,20.8765 L55.38275,20.8765 C55.38275,25.7565 54.29525,29.8565 53.56275,31.094 L53.35775,31.4365 L52.96775,31.5215 C46.07525,33.014 36.85275,33.759 27.79025,33.759" id="Fill-8" fill="#212B64"></path>
                        <path d="M10.96675,23.3575 C10.96675,23.3575 10.72425,26.1425 11.71925,28.355 L14.55175,28.54 C14.55175,28.54 13.76425,26.1875 14.05425,23.595 L10.96675,23.3575 Z" id="Fill-10" fill="#212B64"></path>
                    </g>
                </g>
            </g>
        </g>
    </g>
</svg>