<?xml version="1.0" encoding="UTF-8"?>
<svg width="80px" height="80px" viewBox="0 0 80 80" version="1.1" xmlns="http://www.w3.org/2000/svg" xmlns:xlink="http://www.w3.org/1999/xlink">
    <!-- Generator: Sketch 51.2 (57519) - http://www.bohemiancoding.com/sketch -->
    <title>Trial-Icon-Glow</title>
    <desc>Created with Sketch.</desc>
    <defs></defs>
    <g id="Trial-Page" stroke="none" stroke-width="1" fill="none" fill-rule="evenodd">
        <g id="1360_Trial_v6" transform="translate(-1057.000000, -1794.000000)">
            <g id="15)-Multi-column---Text-+-Icon-Captions" transform="translate(224.000000, 1673.000000)">
                <g id="Trial-Icon-Glow" transform="translate(833.000000, 121.000000)">
                    <polygon id="Fill-1" fill="#FFFFFF" points="0 80 80 80 80 0.0025 0 0.0025"></polygon>
                    <g id="Group-10" transform="translate(20.000000, 12.500000)">
                        <path d="M25.22,47.343 C13.1375,47.343 2.755,43.2805 2.755,16.083 C2.755,14.0855 2.7975,12.2505 2.8625,10.4955 C1.6125,14.4255 1.0475,19.8905 1.0475,27.538 C1.0475,50.583 9.845,54.023 20.0825,54.023 C26.665,54.023 32.6375,52.568 36.0725,45.423 C32.825,46.9055 29.115,47.343 25.22,47.343" id="Fill-2" fill="#D7ECF7"></path>
                        <path d="M29.932,7.25275 C29.932,8.56275 25.8595,9.62525 20.837,9.62525 C15.812,9.62525 11.7395,8.56275 11.7395,7.25275 C11.7395,5.94275 15.812,4.87775 20.837,4.87775 C25.8595,4.87775 29.932,5.94275 29.932,7.25275" id="Fill-4" fill="#D7ECF7"></path>
                        <path d="M20.08225,1.8915 C7.20725,1.8915 1.96225,4.2115 1.96225,27.5365 C1.96225,51.134 11.31475,53.109 20.08225,53.109 C28.84725,53.109 38.20225,51.134 38.20225,27.5365 C38.20225,4.2115 32.95725,1.8915 20.08225,1.8915 M20.08225,54.9415 C9.71975,54.9415 0.13225,51.6215 0.13225,27.5365 C0.13225,4.2115 5.35725,0.0615 20.08225,0.0615 C34.80475,0.0615 40.03225,4.2115 40.03225,27.5365 C40.03225,51.6215 30.44475,54.9415 20.08225,54.9415" id="Fill-6" fill="#212B64"></path>
                        <path d="M20.8365,10.0055 C17.0865,10.0055 13.339,9.418 12.1665,8.243 C11.809,7.8855 11.809,7.3055 12.1665,6.948 C12.5215,6.593 13.104,6.593 13.459,6.948 C15.0465,8.5355 26.629,8.5355 28.2115,6.948 C28.569,6.593 29.149,6.593 29.5065,6.948 C29.864,7.3055 29.864,7.8855 29.5065,8.243 C28.3315,9.418 24.584,10.0055 20.8365,10.0055" id="Fill-8" fill="#212B64"></path>
                    </g>
                </g>
            </g>
        </g>
    </g>
</svg>