<svg width="86" height="40" viewBox="0 0 86 40" fill="none" xmlns="http://www.w3.org/2000/svg">
<path fill-rule="evenodd" clip-rule="evenodd" d="M85.9999 14.5601C84.5741 14.4297 83.1788 15.0277 82.2899 16.1501V14.7201H79.1299V28.4601H82.2899V20.8801C82.2432 19.9605 82.5889 19.0642 83.241 18.414C83.8931 17.7638 84.7904 17.4208 85.7099 17.4701H85.9999V14.5601ZM66.3701 19.94C67.0035 18.3846 68.5157 17.3677 70.1951 17.3677C71.8745 17.3677 73.3867 18.3846 74.0201 19.94H66.3701ZM70.19 14.56C67.6784 14.5761 65.3662 15.9308 64.1243 18.114C62.8825 20.2971 62.8996 22.9769 64.1693 25.144C65.439 27.311 67.7684 28.6361 70.28 28.62C73.7 28.62 76.48 26.78 77.35 24.29H73.61C73.14 25.17 71.96 25.76 70.28 25.76C68.3734 25.8066 66.699 24.5006 66.28 22.64H77.41C77.4707 22.2933 77.5009 21.942 77.5 21.59C77.466 19.69 76.6749 17.8823 75.3024 16.568C73.93 15.2538 72.0896 14.5417 70.19 14.59V14.56ZM54.5201 25.7099C53.414 25.7491 52.3411 25.3284 51.5566 24.5477C50.7721 23.767 50.3462 22.6961 50.3801 21.5899C50.4888 19.3743 52.3168 17.6338 54.5351 17.6338C56.7533 17.6338 58.5813 19.3743 58.6901 21.5899C58.7244 22.7015 58.2944 23.7773 57.5033 24.559C56.7121 25.3407 55.6312 25.7577 54.5201 25.7099ZM54.66 14.56C58.95 14.56 61.79 17.3 61.79 21.56C61.79 25.82 58.95 28.56 54.66 28.56C53.1008 28.6097 51.5836 28.0501 50.43 27V35.3L47.27 35.62V14.72H50.43V16.15C51.5866 15.1015 53.0991 14.533 54.66 14.56ZM40.92 14.56C42.6104 14.613 44.1535 15.5358 45 17L42.43 18.18C42.104 17.6416 41.529 17.3034 40.9 17.28C40.25 17.28 39.59 17.59 39.59 18.35C39.59 19.11 40.52 19.51 42.21 20.11C44.56 20.95 45.68 22.11 45.68 24.17C45.68 26.23 43.78 28.63 40.6 28.63C38.0235 28.7818 35.7882 26.869 35.54 24.3H38.61C38.7806 25.257 39.6395 25.9356 40.61 25.88C41.0889 25.9222 41.5634 25.7608 41.9173 25.4354C42.2712 25.1101 42.4719 24.6507 42.47 24.17C42.47 23.54 42.25 22.85 40.26 22.33C38.12 21.77 36.59 20.62 36.59 18.33C36.6484 17.2499 37.1417 16.2394 37.9576 15.5291C38.7734 14.8188 39.8421 14.4692 40.92 14.56ZM26.9999 25.7102C24.7245 25.7102 22.8799 23.8656 22.8799 21.5902C22.8799 19.3148 24.7245 17.4702 26.9999 17.4702C29.2753 17.4702 31.1199 19.3148 31.1199 21.5902C31.1199 23.8656 29.2753 25.7102 26.9999 25.7102ZM26.8901 14.5602C24.9886 14.4746 23.1361 15.1772 21.7695 16.5021C20.4029 17.8271 19.6434 19.657 19.6701 21.5602C19.6434 23.4634 20.4029 25.2934 21.7695 26.6183C23.1361 27.9432 24.9886 28.6458 26.8901 28.5602C28.4153 28.621 29.8994 28.0577 31.0001 27.0002V28.4302H34.2001V14.7202H31.0001V16.1502C29.9005 15.0877 28.4185 14.5144 26.8901 14.5602ZM10.16 9C6.5715 8.88556 3.20552 10.7347 1.37742 13.8247C-0.450677 16.9148 -0.450677 20.7552 1.37742 23.8453C3.20552 26.9353 6.5715 28.7844 10.16 28.67C13.6465 28.716 16.9053 26.9427 18.76 23.99L15.76 22.39C14.6231 24.4046 12.4621 25.6218 10.15 25.55C8.3724 25.5723 6.66186 24.8722 5.41 23.61C2.8252 20.9514 2.8252 16.7186 5.41 14.06C6.65923 12.7939 8.37152 12.0931 10.15 12.12C11.5507 12.0842 12.9233 12.5171 14.05 13.35C14.9794 14.1199 16.1433 14.5502 17.35 14.57C19.3929 14.5905 21.1762 13.1897 21.64 11.2L18.54 10.57C18.4382 11.1477 17.9366 11.5692 17.35 11.57C16.93 11.57 16.67 11.41 16 10.92C14.3461 9.60114 12.2738 8.91982 10.16 9Z" fill="#1E306E"/>
</svg>
